<svg width="15" height="18" viewBox="0 0 15 18" fill="none" xmlns="http://www.w3.org/2000/svg">
<path d="M0.321023 18V0.545454H7.53125C8.83807 0.545454 9.96591 0.78125 10.9148 1.25284C11.8693 1.71875 12.6051 2.3892 13.1222 3.2642C13.6392 4.13352 13.8977 5.16477 13.8977 6.35795C13.8977 7.56818 13.6335 8.59659 13.1051 9.44318C12.5767 10.2841 11.8267 10.9261 10.8551 11.3693C9.88352 11.8068 8.73295 12.0256 7.40341 12.0256H2.84375V8.7017H6.61932C7.25568 8.7017 7.78693 8.61932 8.21307 8.45455C8.64489 8.28409 8.97159 8.02841 9.19318 7.6875C9.41477 7.34091 9.52557 6.89773 9.52557 6.35795C9.52557 5.81818 9.41477 5.37216 9.19318 5.01989C8.97159 4.66193 8.64489 4.39489 8.21307 4.21875C7.78125 4.03693 7.25 3.94602 6.61932 3.94602H4.53977V18H0.321023ZM10.1477 10.0227L14.4943 18H9.89205L5.63068 10.0227H10.1477Z" fill="url(#paint0_linear_107_14)"/>
<defs>
<linearGradient id="paint0_linear_107_14" x1="4.14286" y1="-4.24675" x2="14.784" y2="24.6445" gradientUnits="userSpaceOnUse">
<stop offset="0.146456" stop-color="#989FFF"/>
<stop offset="0.887278" stop-color="#29A2FF"/>
</linearGradient>
</defs>
</svg>
