<svg width="126" height="128" viewBox="0 0 126 128" fill="none" xmlns="http://www.w3.org/2000/svg">
<path fill-rule="evenodd" clip-rule="evenodd" d="M51.9466 14.1223L27.8506 0.268363C27.2304 -0.0894542 26.4678 -0.0894542 25.8475 0.268363L1.75152 14.1223C1.07838 14.4948 0.758829 15.083 0.75 15.861V98.2783C0.75 98.9939 1.1359 99.6591 1.75611 100.017L49.9528 127.725C50.6494 128.095 51.2347 128.087 51.9512 127.729L100.148 100.021C100.773 99.6637 101.154 99.0031 101.154 98.2828V71.9695L124.244 58.6936C124.869 58.3357 125.25 57.6751 125.25 56.9549V29.481C125.25 28.9848 124.952 28.1523 124.225 27.7423L100.129 13.8884C99.5092 13.5306 98.7466 13.5306 98.1264 13.8884L74.0304 27.7423C73.3732 28.1166 73.0289 28.7271 73.0289 29.481V55.7943L52.9481 67.3408V15.861C52.9481 15.2559 52.593 14.4686 51.9466 14.1223ZM50.9175 95.9708L30.8735 84.6445L75.0181 59.267L95.0805 70.7997L50.9175 95.9708ZM97.1111 44.4955V67.3408L77.0257 55.7943V32.949L97.1111 44.4955ZM99.1188 17.939L119.19 29.481L99.1188 41.0229L79.0471 29.481L99.1188 17.939ZM28.8337 81.1948V30.8755L48.9191 19.329V69.6437L28.8337 81.1948ZM26.8261 4.32363L46.8977 15.8655L26.8261 27.4075L6.75445 15.8655L26.8261 4.32363ZM52.9297 122.518V99.4435L97.1111 74.2586V97.1176L52.9297 122.518ZM101.126 67.3408V44.4955L121.212 32.949V55.7943L101.126 67.3408ZM48.9283 99.4435L48.9283 122.514L4.73305 97.1176V19.329L24.8184 30.8755L24.8184 85.82L48.9283 99.4435Z" fill="#F52D21"/>
</svg>
